HIERARCHY
ROOT joint_0
{
	OFFSET 0.000000 0.000000 0.000000
	CHANNELS 6 Xposition Yposition Zposition Zrotation Yrotation Xrotation 
	JOINT joint_1
	{
		OFFSET 7.566162 2.250183 114.799927
		CHANNELS 3 Zrotation Yrotation Xrotation
		JOINT joint_2
		{
			OFFSET -5.201660 -0.414001 104.936035
			CHANNELS 3 Zrotation Yrotation Xrotation
			JOINT joint_3
			{
				OFFSET -6.923584 -0.419739 104.718018
				CHANNELS 3 Zrotation Yrotation Xrotation
				JOINT joint_4
				{
					OFFSET 3.108887 2.881104 149.449951
					CHANNELS 3 Zrotation Yrotation Xrotation
					JOINT joint_5
					{
						OFFSET 19.988770 5.920349 90.786987
						CHANNELS 3 Zrotation Yrotation Xrotation
						End Site
						{
							OFFSET 0.000000 0.000000 0.000000
						}
					}
				}
				JOINT joint_6
				{
					OFFSET 9.283936 -30.015930 84.410034
					CHANNELS 3 Zrotation Yrotation Xrotation
					JOINT joint_7
					{
						OFFSET 47.243164 -155.716736 -23.241089
						CHANNELS 3 Zrotation Yrotation Xrotation
						JOINT joint_8
						{
							OFFSET 31.323730 -15.356873 -268.798950
							CHANNELS 3 Zrotation Yrotation Xrotation
							JOINT joint_9
							{
								OFFSET 28.122314 -2.114624 -262.450012
								CHANNELS 3 Zrotation Yrotation Xrotation
								End Site
								{
									OFFSET 0.000000 0.000000 0.000000
								}
							}
						}
					}
				}
				JOINT joint_10
				{
					OFFSET -5.580566 33.311218 83.498047
					CHANNELS 3 Zrotation Yrotation Xrotation
					JOINT joint_11
					{
						OFFSET -22.773438 160.515381 -27.138062
						CHANNELS 3 Zrotation Yrotation Xrotation
						JOINT joint_12
						{
							OFFSET 27.004395 30.848877 -267.937988
							CHANNELS 3 Zrotation Yrotation Xrotation
							JOINT joint_13
							{
								OFFSET 32.625000 14.824585 -261.518005
								CHANNELS 3 Zrotation Yrotation Xrotation
								End Site
								{
									OFFSET 0.000000 0.000000 0.000000
								}
							}
						}
					}
				}
			}
		}
	}
	JOINT joint_14
	{
		OFFSET 20.623535 -83.447632 -106.174011
		CHANNELS 3 Zrotation Yrotation Xrotation
		JOINT joint_15
		{
			OFFSET 0.661865 -23.563843 -459.915039
			CHANNELS 3 Zrotation Yrotation Xrotation
			JOINT joint_16
			{
				OFFSET -23.461670 -28.727966 -444.760971
				CHANNELS 3 Zrotation Yrotation Xrotation
				JOINT joint_17
				{
					OFFSET 178.992920 54.047363 -80.113001
					CHANNELS 3 Zrotation Yrotation Xrotation
					End Site
					{
						OFFSET 0.000000 0.000000 0.000000
					}
				}
			}
		}
	}
	JOINT joint_18
	{
		OFFSET -19.571533 84.686279 -105.380005
		CHANNELS 3 Zrotation Yrotation Xrotation
		JOINT joint_19
		{
			OFFSET -22.949951 3.639404 -459.933044
			CHANNELS 3 Zrotation Yrotation Xrotation
			JOINT joint_20
			{
				OFFSET -33.690674 4.092651 -445.010971
				CHANNELS 3 Zrotation Yrotation Xrotation
				JOINT joint_21
				{
					OFFSET 187.419678 18.953857 -76.759001
					CHANNELS 3 Zrotation Yrotation Xrotation
					End Site
					{
						OFFSET 0.000000 0.000000 0.000000
					}
				}
			}
		}
	}
}
MOTION
Frames: 18
Frame Time: 0.016667
-3284.805664 851.519531 1111.057007 -7.253463 0.853908 -0.378961 -0.206002 -2.598424 1.472127 -0.273114 0.356834 -0.262053 -0.239282 -0.601610 0.274899 0.113940 1.152448 -0.835420 0.000000 0.000000 0.000000 1.566741 3.756194 -0.770858 0.172913 4.814702 2.014236 0.006347 1.805690 0.221053 0.000000 0.000000 0.000000 4.795388 4.383034 -2.887805 -0.028794 3.645262 -2.510315 0.196471 2.753005 0.196216 0.000000 0.000000 0.000000 -1.578332 2.787602 1.869001 -1.413136 -1.406348 -0.055052 -1.394254 -1.876132 -0.057198 0.000000 0.000000 0.000000 1.589759 -1.209017 -1.379323 1.543330 2.566317 0.092231 1.439110 -2.022074 0.792527 0.000000 0.000000 0.000000 
-3284.024170 851.741638 1110.947998 -7.336778 1.205522 -0.459375 -0.290163 -2.465930 1.493523 -0.357422 0.384576 -0.290431 -0.320486 -0.601035 0.290952 0.133666 0.332413 -0.697767 0.000000 0.000000 0.000000 1.681256 3.861281 -0.925713 0.164457 5.002120 2.067327 0.044527 1.197277 0.529379 0.000000 0.000000 0.000000 4.630346 4.655863 -2.807246 -0.006633 3.908567 -2.752853 0.132665 2.128694 -0.005101 0.000000 0.000000 0.000000 -1.548483 2.428106 1.921538 -1.395859 -1.394384 -0.012470 -1.374894 -1.864288 -0.052084 0.000000 0.000000 0.000000 1.617585 -1.510751 -1.318196 1.576720 2.489108 0.081965 1.472226 -2.010859 0.804961 0.000000 0.000000 0.000000 
-3282.912109 851.993225 1110.756958 -7.447006 1.703555 -0.570384 -0.387916 -2.359896 1.518208 -0.454740 0.422435 -0.322813 -0.414170 -0.606444 0.310120 0.159533 -0.727370 -0.504000 0.000000 0.000000 0.000000 1.881801 4.006066 -1.168908 0.168094 5.290641 2.196813 0.095589 0.438169 0.913246 0.000000 0.000000 0.000000 4.279291 5.001934 -2.648868 0.012046 4.247789 -3.118176 0.055857 1.406515 -0.260359 0.000000 0.000000 0.000000 -1.509805 1.932031 1.994476 -1.374176 -1.400537 0.051793 -1.352172 -1.838917 -0.049518 0.000000 0.000000 0.000000 1.654747 -1.930171 -1.232615 1.621714 2.363215 0.069100 1.517464 -1.984323 0.820811 0.000000 0.000000 0.000000 
-3281.954346 852.189941 1110.610962 -7.586674 2.268817 -0.703472 -0.481712 -2.223326 1.543039 -0.547808 0.405198 -0.350062 -0.504136 -0.562885 0.322614 0.178706 -1.617801 -0.312181 0.000000 0.000000 0.000000 2.110288 4.038436 -1.313587 0.188367 5.416816 2.251851 0.136240 0.090721 1.226537 0.000000 0.000000 0.000000 4.097501 5.157999 -2.556731 0.007996 4.399845 -3.291431 0.004136 1.135491 -0.544286 0.000000 0.000000 0.000000 -1.473214 1.401556 2.106630 -1.352112 -1.503263 0.106560 -1.338115 -1.791922 -0.057315 0.000000 0.000000 0.000000 1.709095 -2.400341 -1.131802 1.684264 2.173336 0.070831 1.582308 -1.924433 0.841316 0.000000 0.000000 0.000000 
-3281.482422 852.328308 1110.567993 -7.782573 2.954254 -0.878005 -0.581563 -2.038893 1.591752 -0.647959 0.271262 -0.366980 -0.602475 -0.421483 0.322080 0.185270 -2.170189 -0.164130 0.000000 0.000000 0.000000 2.419805 3.844390 -1.310400 0.227525 5.250277 2.200753 0.151604 0.524572 1.410196 0.000000 0.000000 0.000000 4.318926 4.972095 -2.585987 -0.034230 4.204580 -3.088489 -0.008007 1.713639 -0.959728 0.000000 0.000000 0.000000 -1.435058 0.799682 2.296509 -1.323759 -1.783152 0.137984 -1.335522 -1.699572 -0.083854 0.000000 0.000000 0.000000 1.796867 -2.976178 -1.006380 1.780756 1.872634 0.102259 1.684850 -1.797976 0.870531 0.000000 0.000000 0.000000 
-3281.163818 852.412903 1110.568970 -8.009453 3.698428 -1.074037 -0.676760 -1.806961 1.628726 -0.743450 0.078094 -0.368632 -0.698116 -0.239128 0.312960 0.183466 -2.558777 -0.031713 0.000000 0.000000 0.000000 2.761664 3.531122 -1.232544 0.275881 4.933538 2.106829 0.153386 1.366802 1.511844 0.000000 0.000000 0.000000 4.701056 4.603025 -2.653449 -0.092016 3.825844 -2.710136 0.007695 2.744474 -1.425280 0.000000 0.000000 0.000000 -1.399002 0.173824 2.522275 -1.294813 -2.162096 0.163627 -1.343041 -1.578467 -0.123509 0.000000 0.000000 0.000000 1.901388 -3.592697 -0.869866 1.894632 1.504792 0.149338 1.806634 -1.632698 0.903682 0.000000 0.000000 0.000000 
-3280.490234 852.375610 1110.571045 -8.191950 4.260509 -1.222698 -0.717824 -1.514654 1.571544 -0.781756 -0.061404 -0.345097 -0.739527 -0.104745 0.291902 0.175577 -2.893660 0.111541 0.000000 0.000000 0.000000 2.937640 3.271496 -1.087257 0.309632 4.616463 1.978598 0.150896 2.061704 1.546194 0.000000 0.000000 0.000000 4.869061 4.252247 -2.683254 -0.133249 3.486403 -2.412409 0.043591 3.590586 -1.650049 0.000000 0.000000 0.000000 -1.387726 -0.261040 2.682646 -1.286867 -2.474038 0.199573 -1.364496 -1.491075 -0.159218 0.000000 0.000000 0.000000 1.983512 -4.014278 -0.764523 1.984504 1.193276 0.184869 1.902454 -1.509266 0.930403 0.000000 0.000000 0.000000 
-3279.260742 852.143188 1110.578003 -8.296062 4.506291 -1.282531 -0.665847 -1.153981 1.371775 -0.721726 -0.092072 -0.291107 -0.686156 -0.044571 0.245873 0.160302 -3.179440 0.273212 0.000000 0.000000 0.000000 2.816412 3.128973 -0.832267 0.319428 4.329904 1.814531 0.135958 2.444867 1.442872 0.000000 0.000000 0.000000 4.625418 3.967728 -2.652015 -0.152388 3.250459 -2.296075 0.110469 4.048198 -1.395978 0.000000 0.000000 0.000000 -1.414075 -0.362133 2.720684 -1.307845 -2.677928 0.263330 -1.400817 -1.470180 -0.181578 0.000000 0.000000 0.000000 2.026355 -4.091383 -0.714883 2.031079 0.965609 0.198040 1.952033 -1.464575 0.946142 0.000000 0.000000 0.000000 
-3277.675049 851.789917 1110.583984 -8.352124 4.579967 -1.295279 -0.562128 -0.750181 1.095876 -0.608119 -0.071850 -0.219133 -0.581427 -0.013688 0.182180 0.139477 -3.412523 0.442079 0.000000 0.000000 0.000000 2.540955 3.036704 -0.506869 0.314176 4.039146 1.613857 0.115349 2.680655 1.278465 0.000000 0.000000 0.000000 4.167332 3.696274 -2.590103 -0.160506 3.050679 -2.247554 0.194269 4.327755 -0.898578 0.000000 0.000000 0.000000 -1.465514 -0.283593 2.696999 -1.349907 -2.812501 0.333895 -1.449483 -1.492689 -0.196400 0.000000 0.000000 0.000000 2.046916 -3.984975 -0.692001 2.053239 0.797383 0.198954 1.975415 -1.468795 0.956093 0.000000 0.000000 0.000000 
-3275.826904 851.473816 1110.531006 -8.381613 4.666402 -1.318583 -0.479327 -0.355053 0.850704 -0.519413 -0.061880 -0.160231 -0.500186 0.022349 0.127749 0.121022 -3.692174 0.618585 0.000000 0.000000 0.000000 2.331829 2.969093 -0.235722 0.294287 3.790303 1.380242 0.116977 2.709813 1.294125 0.000000 0.000000 0.000000 3.714172 3.486782 -2.500183 -0.158779 2.909410 -2.199237 0.241377 4.406502 -0.579985 0.000000 0.000000 0.000000 -1.525540 -0.265806 2.691713 -1.409476 -2.829289 0.364597 -1.505797 -1.544156 -0.205904 0.000000 0.000000 0.000000 2.057172 -3.933598 -0.654463 2.067108 0.734450 0.193359 1.988582 -1.507044 0.965288 0.000000 0.000000 0.000000 
-3273.898438 851.224548 1110.380981 -8.396991 4.810861 -1.375894 -0.440608 0.052761 0.665960 -0.481306 -0.082568 -0.127362 -0.466542 0.080303 0.093895 0.107368 -4.083393 0.817812 0.000000 0.000000 0.000000 2.278119 2.915253 -0.079801 0.255407 3.606131 1.119487 0.156762 2.408851 1.619064 0.000000 0.000000 0.000000 3.315074 3.368089 -2.346723 -0.148203 2.840498 -2.159405 0.220744 4.191669 -0.624725 0.000000 0.000000 0.000000 -1.587579 -0.416877 2.745258 -1.488980 -2.646274 0.316283 -1.567104 -1.621314 -0.209911 0.000000 0.000000 0.000000 2.056510 -4.036625 -0.578725 2.074477 0.852099 0.181909 1.992255 -1.601002 0.976224 0.000000 0.000000 0.000000 
-3271.707520 851.011353 1110.171021 -8.385435 4.967209 -1.443070 -0.422996 0.453093 0.509349 -0.467529 -0.112197 -0.106171 -0.455767 0.140666 0.070935 0.096983 -4.520522 1.024516 0.000000 0.000000 0.000000 2.288484 2.887334 0.021664 0.204067 3.463884 0.824166 0.220407 1.899514 2.122739 0.000000 0.000000 0.000000 2.924232 3.313501 -2.164010 -0.128536 2.830724 -2.124547 0.162468 3.770230 -0.841921 0.000000 0.000000 0.000000 -1.658192 -0.626993 2.817487 -1.586013 -2.347222 0.225701 -1.636741 -1.725363 -0.209513 0.000000 0.000000 0.000000 2.045104 -4.193544 -0.488612 2.073137 1.074585 0.164066 1.985338 -1.728054 0.986152 0.000000 0.000000 0.000000 
-3268.796875 850.900879 1109.953003 -8.332753 5.184249 -1.506582 -0.431825 0.721772 0.395435 -0.479541 -0.138703 -0.090892 -0.469914 0.181290 0.056272 0.091682 -4.901324 1.190913 0.000000 0.000000 0.000000 2.320132 2.892484 0.124342 0.155020 3.342453 0.481030 0.288923 1.489203 2.658402 0.000000 0.000000 0.000000 2.620628 3.289126 -2.056522 -0.100683 2.860014 -2.016390 0.103357 3.389931 -1.092419 0.000000 0.000000 0.000000 -1.741077 -0.810828 2.869115 -1.689486 -2.131745 0.160242 -1.717658 -1.854506 -0.206439 0.000000 0.000000 0.000000 2.034847 -4.344899 -0.414021 2.072504 1.223892 0.144378 1.980511 -1.811913 0.992514 0.000000 0.000000 0.000000 
-3264.909912 850.907532 1109.713989 -8.212552 5.519232 -1.569434 -0.479363 0.762036 0.348922 -0.526709 -0.162964 -0.077348 -0.518730 0.192851 0.050040 0.092205 -5.160948 1.285922 0.000000 0.000000 0.000000 2.359183 2.948535 0.255754 0.108622 3.232537 0.034757 0.362400 1.300956 3.240254 0.000000 0.000000 0.000000 2.443659 3.289872 -2.098309 -0.058328 2.940770 -1.752033 0.050103 3.127252 -1.370537 0.000000 0.000000 0.000000 -1.850030 -0.947374 2.895791 -1.805482 -2.117765 0.148085 -1.823638 -2.012778 -0.205511 0.000000 0.000000 0.000000 2.036079 -4.484571 -0.365503 2.081862 1.186225 0.136090 1.989914 -1.806349 0.995577 0.000000 0.000000 0.000000 
-3260.305420 851.016663 1109.467041 -8.050635 5.916394 -1.627877 -0.553181 0.670604 0.346264 -0.598032 -0.189339 -0.069142 -0.590960 0.191738 0.051517 0.097304 -5.366863 1.340724 0.000000 0.000000 0.000000 2.418001 3.037805 0.393684 0.064030 3.139898 -0.465790 0.440485 1.212153 3.856466 0.000000 0.000000 0.000000 2.344669 3.316188 -2.226683 -0.006368 3.060973 -1.404605 -0.004193 2.905736 -1.686862 0.000000 0.000000 0.000000 -1.971907 -1.058999 2.903195 -1.928170 -2.187062 0.162350 -1.940780 -2.192488 -0.202874 0.000000 0.000000 0.000000 2.038207 -4.620596 -0.331437 2.092073 1.075459 0.125001 2.001532 -1.753335 0.994664 0.000000 0.000000 0.000000 
-3255.294189 851.239868 1109.310059 -7.909634 6.256830 -1.658745 -0.623014 0.607725 0.322474 -0.664969 -0.206247 -0.061978 -0.658765 0.190004 0.051502 0.104360 -5.610351 1.403989 0.000000 0.000000 0.000000 2.496833 3.116274 0.522227 0.030117 3.068150 -0.878277 0.500274 1.163525 4.323001 0.000000 0.000000 0.000000 2.268276 3.343961 -2.341012 0.036048 3.165855 -1.124994 -0.045164 2.747634 -1.935687 0.000000 0.000000 0.000000 -2.069514 -1.127207 2.866375 -2.027755 -2.184048 0.187457 -2.028395 -2.375923 -0.185860 0.000000 0.000000 0.000000 2.020388 -4.714685 -0.308124 2.083408 1.050618 0.076999 1.991031 -1.706225 0.985246 0.000000 0.000000 0.000000 
-3249.926514 851.605530 1109.280029 -7.801719 6.485920 -1.643788 -0.679127 0.642298 0.247125 -0.718788 -0.209799 -0.053887 -0.713630 0.196968 0.046885 0.114231 -5.945560 1.494874 0.000000 0.000000 0.000000 2.586864 3.166052 0.624944 0.011572 3.025595 -1.128133 0.528241 1.143960 4.541093 0.000000 0.000000 0.000000 2.193112 3.362592 -2.400585 0.058081 3.229715 -0.987230 -0.064021 2.679559 -2.056143 0.000000 0.000000 0.000000 -2.132722 -1.118365 2.753128 -2.094339 -2.071665 0.241291 -2.072732 -2.558155 -0.149923 0.000000 0.000000 0.000000 1.963262 -4.731260 -0.300530 2.036464 1.155716 -0.027702 1.937555 -1.672875 0.959617 0.000000 0.000000 0.000000 
-3244.153076 852.086243 1109.339966 -7.714128 6.658545 -1.602097 -0.730960 0.705219 0.149663 -0.768214 -0.206672 -0.045949 -0.764198 0.207643 0.039236 0.126472 -6.322392 1.597049 0.000000 0.000000 0.000000 2.694905 3.203480 0.717727 0.002199 3.003110 -1.288148 0.536516 1.166683 4.610053 0.000000 0.000000 0.000000 2.140441 3.381580 -2.446026 0.069248 3.276798 -0.916579 -0.070159 2.676397 -2.109773 0.000000 0.000000 0.000000 -2.171493 -1.066796 2.594966 -2.137834 -1.887125 0.305860 -2.087838 -2.740815 -0.100774 0.000000 0.000000 0.000000 1.886262 -4.706947 -0.304056 1.970421 1.346588 -0.168713 1.861809 -1.641837 0.925084 0.000000 0.000000 0.000000 
